<?xml version="1.0" standalone="no"?><!DOCTYPE svg PUBLIC "-//W3C//DTD SVG 1.1//EN" "http://www.w3.org/Graphics/SVG/1.1/DTD/svg11.dtd"><svg class="icon" width="200px" height="200.00px" viewBox="0 0 1024 1024" version="1.1" xmlns="http://www.w3.org/2000/svg"><path fill="#333333" d="M116 218.4m-40 0a40 40 0 1 0 80 0 40 40 0 1 0-80 0Z"  /><path fill="#333333" d="M248.8 351.2m-40 0a40 40 0 1 0 80 0 40 40 0 1 0-80 0Z"  /><path fill="#333333" d="M115.2 484m-40 0a40 40 0 1 0 80 0 40 40 0 1 0-80 0Z"  /><path fill="#333333" d="M381.6 218.4m-40 0a40 40 0 1 0 80 0 40 40 0 1 0-80 0Z"  /><path fill="#333333" d="M515.2 351.2m-40 0a40 40 0 1 0 80 0 40 40 0 1 0-80 0Z"  /><path fill="#333333" d="M381.6 484m-40 0a40 40 0 1 0 80 0 40 40 0 1 0-80 0Z"  /><path fill="#333333" d="M648 218.4m-40 0a40 40 0 1 0 80 0 40 40 0 1 0-80 0Z"  /><path fill="#333333" d="M914.4 218.4m-40 0a40 40 0 1 0 80 0 40 40 0 1 0-80 0Z"  /><path fill="#333333" d="M781.6 351.2m-40 0a40 40 0 1 0 80 0 40 40 0 1 0-80 0Z"  /><path fill="#333333" d="M648.8 484m-40 0a40 40 0 1 0 80 0 40 40 0 1 0-80 0Z"  /><path fill="#333333" d="M915.2 484m-40 0a40 40 0 1 0 80 0 40 40 0 1 0-80 0Z"  /><path fill="#333333" d="M515.2 844h-400c-21.6 0-40-18.4-40-40s17.6-40 40-40h400c21.6 0 40 18.4 40 40 0 22.4-18.4 40-40 40zM915.2 684h-800c-21.6 0-40-18.4-40-40s17.6-40 40-40h800c21.6 0 40 18.4 40 40 0 22.4-18.4 40-40 40zM915.2 844h-240c-21.6 0-40-18.4-40-40s18.4-40 40-40h240c21.6 0 40 18.4 40 40 0 22.4-18.4 40-40 40z"  /></svg>